<svg xmlns="http://www.w3.org/2000/svg" xmlns:xlink="http://www.w3.org/1999/xlink" xmlns:fi="http://pattern.flaticon.com/"
    x="0" y="0" width="700" height="350" viewBox="0 0 700 350">
    <rect x="0px" y="0px" width="100%" height="100%" opacity="0.3" fill="none" />
    <defs>
        <g transform="matrix(0.0917431190609932 0 0 0.0917431190609932 67.5 67.5)" id="L1_48">
            <path d="M317.862,258.827c0.82-8.715,1.244-17.598,1.244-26.586c0-45.212-10.462-101.641-27.303-147.266   C265.879,14.742,237.36,0,218,0s-47.879,14.742-73.803,84.975c-16.841,45.625-27.303,102.054-27.303,147.266   c0,8.989,0.425,17.871,1.244,26.586c-35.982,6.185-63.729,43.352-63.729,88.142c0,23.177,7.364,45.111,20.736,61.763   c13.828,17.22,32.459,26.903,52.461,27.267c0.061,0.001,0.121,0.001,0.182,0.001c3.002,0,5.849-1.349,7.749-3.68   c1.939-2.377,2.68-5.514,2.009-8.508c-2.241-9.998-1.898-25.37,6.445-35.792c5.143-6.423,12.717-10.05,22.544-10.82   c12.536,12.198,26.609,19.727,41.465,22.061V426c0,5.523,4.478,10,10,10s10-4.477,10-10v-26.738   c14.856-2.333,28.929-9.863,41.465-22.061c9.827,0.77,17.401,4.397,22.544,10.82c8.344,10.422,8.687,25.794,6.445,35.791   c-0.671,2.994,0.069,6.131,2.009,8.508c1.9,2.331,4.747,3.68,7.749,3.68c0.061,0,0.121,0,0.182-0.001   c20.002-0.363,38.633-10.046,52.461-27.266c13.371-16.651,20.735-38.585,20.735-61.763   C381.59,302.179,353.844,265.012,317.862,258.827z M218,20c17.072,0,36.637,24.607,52.85,66.15   C256.778,99.872,237.744,107.67,218,107.67s-38.777-7.799-52.85-21.521C181.363,44.607,200.929,20,218,20z M128.379,375.521   c-9.167,11.45-12.24,25.882-11.997,38.666c-23.98-7.183-41.973-34.745-41.973-67.218c0-34.623,20.156-63.368,46.337-68.298   c4.448,26.17,12.659,50.215,24.172,70.157c2.215,3.837,4.527,7.464,6.92,10.895C140.4,363.278,132.98,369.774,128.379,375.521z    M228,378.886V288.4c0-5.523-4.478-10-10-10s-10,4.477-10,10v90.486c-16.95-3.935-32.917-17.81-45.761-40.058   c-16.344-28.31-25.345-66.163-25.345-106.587c0-38.331,7.938-85.209,21.046-125.789C174.84,120.06,196.074,127.67,218,127.67   s43.161-7.61,60.06-21.219c13.108,40.58,21.046,87.458,21.046,125.789c0,40.424-9.001,78.278-25.345,106.587   C260.917,361.076,244.95,374.951,228,378.886z M319.619,414.187c0.243-12.784-2.83-27.215-11.997-38.666   c-4.601-5.747-12.02-12.243-23.459-15.798c2.393-3.431,4.705-7.058,6.92-10.895c11.513-19.942,19.724-43.987,24.172-70.157   c26.18,4.93,46.336,33.676,46.336,68.298C361.59,379.442,343.599,407.004,319.619,414.187z"
            />
            <path d="M218,158.17c-24.896,0-45.149,20.254-45.149,45.149c0,24.896,20.254,45.149,45.149,45.149s45.149-20.254,45.149-45.149   C263.15,178.424,242.896,158.17,218,158.17z M218,228.469c-13.867,0-25.149-11.282-25.149-25.149   c0-13.867,11.282-25.149,25.149-25.149s25.149,11.282,25.149,25.149C243.15,217.187,231.868,228.469,218,228.469z"
            />
        </g>
        <g transform="matrix(0.16060523822470327 -0.04303404388251731 0.04303404388251731 0.16060523822470327 132.1339297976773 150.25126227221708)"
            id="L1_49">
            <path d="M10,103h48v6H48c-5.522,0-10,4.477-10,10s4.478,10,10,10h40c5.522,0,10-4.477,10-10s-4.478-10-10-10H78v-6h46   c5.522,0,10-4.477,10-10V19c0-5.523-4.478-10-10-10H10C4.478,9,0,13.477,0,19v74C0,98.523,4.478,103,10,103z M20,29h94v54H20V29z"
            />
            <path d="M411,9H297c-5.522,0-10,4.477-10,10v74c0,5.523,4.478,10,10,10h48v6h-10c-5.522,0-10,4.477-10,10s4.478,10,10,10h40   c5.522,0,10-4.477,10-10s-4.478-10-10-10h-10v-6h46c5.522,0,10-4.477,10-10V19C421,13.477,416.522,9,411,9z M401,83h-94V29h94V83z"
            />
            <path d="M124,292H10c-5.522,0-10,4.477-10,10v74c0,5.523,4.478,10,10,10h48v6H48c-5.522,0-10,4.477-10,10s4.478,10,10,10h40   c5.522,0,10-4.477,10-10s-4.478-10-10-10H78v-6h46c5.522,0,10-4.477,10-10v-74C134,296.477,129.522,292,124,292z M114,366H20v-54   h94V366z"
            />
            <path d="M411,292H297c-5.522,0-10,4.477-10,10v74c0,5.523,4.478,10,10,10h48v6h-10c-5.522,0-10,4.477-10,10s4.478,10,10,10h40   c5.522,0,10-4.477,10-10s-4.478-10-10-10h-10v-6h46c5.522,0,10-4.477,10-10v-74C421,296.477,416.522,292,411,292z M401,366h-94v-54   h94V366z"
            />
            <path d="M93.515,201.731c0,64.506,52.479,116.985,116.985,116.985s116.985-52.479,116.985-116.985S275.006,84.746,210.5,84.746   S93.515,137.225,93.515,201.731z M307.485,201.731c0,53.478-43.508,96.985-96.985,96.985s-96.985-43.508-96.985-96.985   s43.508-96.985,96.985-96.985S307.485,148.253,307.485,201.731z"
            />
            <path d="M266.551,354.065c-17.922,6.593-36.779,9.935-56.048,9.935s-38.126-3.343-56.048-9.935   c-5.183-1.907-10.932,0.75-12.837,5.933c-1.907,5.183,0.749,10.931,5.933,12.838C167.69,380.244,188.87,384,210.503,384   s42.813-3.756,62.952-11.165c5.184-1.907,7.84-7.654,5.933-12.838C277.481,354.814,271.734,352.159,266.551,354.065z"
            />
            <path d="M154.455,49.395c17.922-6.593,36.779-9.935,56.048-9.935s38.126,3.343,56.048,9.935c1.139,0.419,2.305,0.617,3.451,0.617   c4.072,0,7.898-2.506,9.386-6.55c1.907-5.183-0.749-10.931-5.933-12.838c-20.14-7.408-41.319-11.165-62.952-11.165   s-42.813,3.756-62.952,11.165c-5.184,1.907-7.84,7.654-5.933,12.838C143.523,48.646,149.271,51.301,154.455,49.395z"
            />
            <path d="M52.235,132.845c-5.183-1.908-10.931,0.75-12.837,5.933c-7.408,20.138-11.165,41.319-11.165,62.952   s3.757,42.814,11.165,62.952c1.487,4.045,5.313,6.55,9.386,6.55c1.146,0,2.313-0.199,3.451-0.618   c5.184-1.907,7.84-7.654,5.933-12.837c-6.592-17.92-9.935-36.778-9.935-56.048s3.343-38.127,9.935-56.048   C60.075,140.499,57.419,134.752,52.235,132.845z"
            />
            <path d="M368.771,270.615c1.139,0.419,2.305,0.618,3.451,0.618c4.072,0,7.898-2.506,9.386-6.55   c7.409-20.14,11.166-41.321,11.166-62.952s-3.757-42.812-11.166-62.952c-1.905-5.184-7.654-7.84-12.837-5.933   c-5.184,1.907-7.84,7.654-5.933,12.837c6.593,17.922,9.936,36.779,9.936,56.048s-3.343,38.125-9.936,56.048   C360.931,262.961,363.587,268.708,368.771,270.615z"
            />
            <path d="M175.862,152.951c-3.906-3.905-10.236-3.905-14.143,0c-3.905,3.905-3.905,10.237,0,14.142l34.638,34.638l-34.638,34.638   c-3.905,3.905-3.905,10.237,0,14.142c1.953,1.953,4.512,2.929,7.071,2.929c2.559,0,5.119-0.977,7.071-2.929l34.638-34.638   l34.638,34.638c1.953,1.953,4.512,2.929,7.071,2.929s5.118-0.976,7.071-2.929c3.905-3.905,3.905-10.237,0-14.142l-34.638-34.638   l34.638-34.638c3.905-3.905,3.905-10.237,0-14.142c-3.905-3.905-10.237-3.905-14.143,0L210.5,187.589L175.862,152.951z"
            />
        </g>
        <g transform="matrix(0.20600313878560184 0.0551983746758785 -0.0551983746758785 0.20600313878560184 -31.81980512284349 -55.11351923606422)"
            id="L1_50">
            <path d="M401.768,129.995H292.239c-0.128,0-0.233-0.104-0.233-0.233V20.233C292.006,9.076,282.929,0,271.773,0H150.228   c-11.156,0-20.233,9.076-20.233,20.233v109.529c0,0.128-0.104,0.233-0.233,0.233H20.233C9.077,129.995,0,139.071,0,150.228v121.545   c0,11.156,9.077,20.233,20.233,20.233h109.529c0.128,0,0.233,0.104,0.233,0.233v109.529c0,11.156,9.077,20.233,20.233,20.233   h121.545c11.156,0,20.233-9.076,20.233-20.233V292.238c0-0.128,0.104-0.233,0.233-0.233h109.529   c11.156,0,20.232-9.076,20.232-20.233V150.228C422,139.071,412.924,129.995,401.768,129.995z M402,271.773   c0,0.128-0.104,0.233-0.232,0.233H292.239c-11.156,0-20.233,9.076-20.233,20.233v109.529c0,0.128-0.104,0.233-0.233,0.233H150.228   c-0.128,0-0.233-0.104-0.233-0.233V292.238c0-11.156-9.077-20.233-20.233-20.233H20.233c-0.128,0-0.233-0.104-0.233-0.233V150.228   c0-0.128,0.104-0.233,0.233-0.233h109.529c11.156,0,20.233-9.076,20.233-20.233V20.233c0-0.128,0.104-0.233,0.233-0.233h121.545   c0.128,0,0.233,0.104,0.233,0.233v109.529c0,11.156,9.077,20.233,20.233,20.233h109.529c0.128,0,0.232,0.104,0.232,0.233V271.773z"
            />
            <path d="M186.875,99.857h48.25c3.573,0,6.874-1.906,8.66-5c1.787-3.094,1.787-6.906,0-10L219.66,43.072   c-1.786-3.094-5.087-5-8.66-5s-6.874,1.906-8.66,5l-24.125,41.785c-1.787,3.094-1.787,6.906,0,10   C180.001,97.951,183.303,99.857,186.875,99.857z M211,68.072l6.804,11.785h-13.608L211,68.072z"
            />
            <path d="M235.125,322.143h-48.25c-3.573,0-6.874,1.906-8.66,5c-1.787,3.094-1.787,6.906,0,10l24.125,41.785   c1.786,3.094,5.087,5,8.66,5c3.572,0,6.874-1.906,8.66-5l24.125-41.785c1.787-3.094,1.787-6.906,0-10   C241.999,324.049,238.698,322.143,235.125,322.143z M211,353.928l-6.804-11.785h13.608L211,353.928z"
            />
            <path d="M378.929,202.34l-41.785-24.124c-3.094-1.787-6.906-1.787-10,0c-3.094,1.786-5,5.087-5,8.66v48.249   c0,3.573,1.906,6.874,5,8.66c1.547,0.893,3.273,1.34,5,1.34s3.453-0.447,5-1.34l41.785-24.125c3.094-1.786,5-5.088,5-8.66   C383.929,207.427,382.022,204.126,378.929,202.34z M342.144,217.804v-13.608L353.929,211L342.144,217.804z"
            />
            <path d="M94.857,178.215c-3.094-1.786-6.905-1.786-10,0L43.072,202.34c-3.094,1.786-5,5.088-5,8.66c0,3.573,1.906,6.874,5,8.66   l41.785,24.125c1.547,0.893,3.273,1.34,5,1.34s3.453-0.447,5-1.34c3.094-1.786,5-5.087,5-8.66v-48.249   C99.857,183.303,97.951,180.001,94.857,178.215z M79.857,217.804L68.072,211l11.785-6.804V217.804z"
            />
            <path d="M212,166.264c-25.222,0-45.741,20.52-45.741,45.741s20.519,45.741,45.741,45.741s45.741-20.519,45.741-45.741   S237.222,166.264,212,166.264z M212,237.747c-14.193,0-25.741-11.547-25.741-25.741c0-14.194,11.547-25.741,25.741-25.741   c14.194,0,25.741,11.547,25.741,25.741C237.741,226.199,226.194,237.747,212,237.747z"
            />
        </g>
        <path d="M359.752,108.935h-24.024C331.115,48.094,280.136,0,218.134,0h-27.092C129.04,0,78.06,48.094,73.448,108.935H49.424  c-24.117,0-43.737,19.621-43.737,43.738v76.603c0,24.117,19.62,43.737,43.737,43.737h32.683c4.971,0,9-4.029,9-9V117.935  C91.107,62.831,135.938,18,191.042,18h27.092c55.104,0,99.935,44.831,99.935,99.935v145.674c0,42.606-26.907,80.163-66.419,94.185  c-5.687-12.869-18.566-21.876-33.515-21.876c-20.198,0-36.63,16.432-36.63,36.629s16.432,36.629,36.63,36.629  c19.109,0,34.838-14.711,36.479-33.402c45.325-14.703,77.308-55.356,81.073-102.762h24.067c24.117,0,43.737-19.621,43.737-43.737  v-76.603C403.49,128.556,383.87,108.935,359.752,108.935z M73.107,255.013H49.424c-14.191,0-25.737-11.546-25.737-25.737v-76.603  c0-14.192,11.546-25.738,25.737-25.738h23.683V255.013z M218.134,391.177c-10.272,0-18.63-8.357-18.63-18.629  s8.357-18.629,18.63-18.629s18.629,8.357,18.629,18.629S228.407,391.177,218.134,391.177z M385.49,229.276  c0,14.191-11.546,25.737-25.737,25.737h-23.684V126.935h23.684c14.191,0,25.737,11.546,25.737,25.738V229.276z"
            transform="matrix(0.1221965029835701 0 0 0.1221965029835701 62.5 237.5)" id="L1_51" />
        <g transform="matrix(0.08456838130950928 0 0 0.08456838130950928 155 330)" id="L1_52">
            <path d="M364.63,243.307H246.495v-10c0-16.542-13.458-30-30-30H72.548c-5.514,0-10-4.486-10-10c0-5.514,4.486-10,10-10h327.894   c16.542,0,30-13.458,30-30s-13.458-30-30-30H108.508c-5.514,0-10-4.486-10-10c0-5.514,4.486-10,10-10h255.973   c16.542,0,30-13.458,30-30s-13.458-30-30-30H256.495c-5.514,0-10-4.486-10-10V22.964c0-5.523-4.477-10-10-10s-10,4.477-10,10   v10.344c0,16.542,13.458,30,30,30h107.987c5.514,0,10,4.486,10,10c0,5.514-4.486,10-10,10H108.508c-16.542,0-30,13.458-30,30   s13.458,30,30,30h291.934c5.514,0,10,4.486,10,10c0,5.514-4.486,10-10,10H72.548c-16.542,0-30,13.458-30,30s13.458,30,30,30   h143.947c5.514,0,10,4.486,10,10v10H108.359C48.61,243.307,0,291.917,0,351.667s48.61,108.359,108.359,108.359   c34.03,0,65.934-15.961,86.39-42.958h83.491c20.456,26.997,52.36,42.958,86.39,42.958c59.75,0,108.359-48.61,108.359-108.359   S424.38,243.307,364.63,243.307z M364.63,440.026c-29.211,0-56.505-14.429-73.013-38.598c-1.863-2.728-4.954-4.36-8.258-4.36   h-93.73c-3.304,0-6.395,1.632-8.258,4.36c-16.507,24.169-43.802,38.598-73.013,38.598C59.638,440.026,20,400.388,20,351.667   s39.638-88.359,88.359-88.359H364.63c48.722,0,88.359,39.638,88.359,88.359S413.352,440.026,364.63,440.026z"
            />
            <path d="M108.359,287.922c-35.148,0-63.744,28.595-63.744,63.744s28.596,63.744,63.744,63.744s63.744-28.595,63.744-63.744   S143.508,287.922,108.359,287.922z M108.359,395.411c-24.121,0-43.744-19.624-43.744-43.744s19.624-43.744,43.744-43.744   s43.744,19.624,43.744,43.744S132.48,395.411,108.359,395.411z"
            />
            <path d="M327.958,336.704c-8.28,0.01-14.99,6.73-14.98,15.02c0.01,8.27,6.72,14.98,15,14.98h0.01c8.29-0.01,14.99-6.73,14.99-15.01   C342.968,343.404,336.248,336.694,327.958,336.704z"
            />
            <path d="M401.238,336.554c-8.28,0.02-14.98,6.76-14.95,15.05c0.02,8.26,6.73,14.95,15,14.95c0.01,0,0.03,0,0.04,0   c8.29-0.03,14.98-6.76,14.96-15.05C416.258,343.224,409.528,336.524,401.238,336.554z"
            />
            <path d="M364.718,373.324c-0.03,0-0.06,0-0.09,0c-8.28,0-15,6.71-15,15c0,8.28,6.72,15,15,15c0.02,0,0.04,0,0.06,0   c0.03,0,0.06,0,0.09,0c0.02,0,0.04,0,0.06,0c8.29-0.04,14.98-6.78,14.94-15.06C379.748,379.974,373.008,373.284,364.718,373.324z"
            />
            <path d="M364.558,330.014c0.01,0,0.02,0,0.03,0c8.28-0.02,14.98-6.75,14.97-15.03c-0.02-8.29-6.75-14.99-15.03-14.97   c-8.29,0.01-14.99,6.74-14.97,15.03C349.568,323.314,356.288,330.014,364.558,330.014z"
            />
            <path d="M118.359,341.667v-13.969c0-5.523-4.477-10-10-10s-10,4.477-10,10v13.969H84.39c-5.523,0-10,4.477-10,10s4.477,10,10,10   h13.97v13.969c0,5.523,4.477,10,10,10s10-4.477,10-10v-13.969h13.969c5.523,0,10-4.477,10-10s-4.477-10-10-10H118.359z"
            />
            <path d="M220.544,358.461h-19.141c-5.523,0-10,4.477-10,10s4.477,10,10,10h19.141c5.523,0,10-4.477,10-10   S226.067,358.461,220.544,358.461z"
            />
            <path d="M271.586,358.461h-19.141c-5.523,0-10,4.477-10,10s4.477,10,10,10h19.141c5.523,0,10-4.477,10-10   S277.109,358.461,271.586,358.461z"
            />
        </g>
        <g transform="matrix(0.04310530796647072 0 0 0.04310530796647072 252.5 340)" id="L1_53">
            <path d="M432.909,145.296H31.071C13.938,145.296,0,159.235,0,176.367v65.847c0,17.133,13.938,31.071,31.071,31.071h170.335   l-37.324,27.33c-3.49,2.555-4.941,7.065-3.597,11.176c1.344,4.111,5.18,6.892,9.505,6.892h124c4.325,0,8.16-2.781,9.505-6.892   c1.344-4.111-0.107-8.621-3.597-11.176l-37.324-27.33h170.335c17.133,0,31.071-13.938,31.071-31.071v-65.847   C463.98,159.235,450.042,145.296,432.909,145.296z M200.574,298.684l31.417-23.004l31.416,23.004H200.574z M443.98,242.215   c0,6.105-4.967,11.071-11.071,11.071H31.071c-6.104,0-11.071-4.967-11.071-11.071v-65.847c0-6.105,4.967-11.071,11.071-11.071   h401.838c6.104,0,11.071,4.967,11.071,11.071V242.215z"
            />
            <path d="M198.671,178.29c-17.093,0-30.999,13.906-30.999,30.999s13.906,30.999,30.999,30.999s30.999-13.906,30.999-30.999   S215.764,178.29,198.671,178.29z M198.671,220.288c-6.065,0-10.999-4.934-10.999-10.999s4.934-10.999,10.999-10.999   s10.999,4.934,10.999,10.999S204.736,220.288,198.671,220.288z"
            />
            <path d="M265.31,178.29c-17.093,0-30.999,13.906-30.999,30.999s13.906,30.999,30.999,30.999s30.999-13.906,30.999-30.999   S282.402,178.29,265.31,178.29z M265.31,220.288c-6.064,0-10.999-4.934-10.999-10.999s4.935-10.999,10.999-10.999   s10.999,4.934,10.999,10.999S271.374,220.288,265.31,220.288z"
            />
            <path d="M86.261,178.29c-17.093,0-30.999,13.906-30.999,30.999s13.906,30.999,30.999,30.999s30.999-13.906,30.999-30.999   S103.354,178.29,86.261,178.29z M86.261,220.288c-6.065,0-10.999-4.934-10.999-10.999s4.934-10.999,10.999-10.999   s10.999,4.934,10.999,10.999S92.326,220.288,86.261,220.288z"
            />
            <path d="M143.353,199.289c-2.63,0-5.21,1.07-7.07,2.93c-1.87,1.86-2.93,4.44-2.93,7.07c0,2.63,1.06,5.21,2.93,7.07   c1.86,1.86,4.44,2.93,7.07,2.93s5.21-1.07,7.07-2.93c1.86-1.86,2.93-4.43,2.93-7.07c0-2.63-1.07-5.21-2.93-7.07   C148.563,200.359,145.983,199.289,143.353,199.289z"
            />
        </g>
        <g transform="matrix(0.0472714900970459 0 0 0.0472714900970459 77.5 340)" id="L1_54">
            <path d="M19.492,162.955c2.606,9.857,13.366,21.86,49.817,23.072c2.021,0.067,4.085,0.101,6.19,0.101   c23.522,0,52.143-4.166,81.428-11.9c31.905-8.427,61.033-20.148,82.018-33.004c31.105-19.057,34.529-34.809,31.926-44.668   c-0.008-0.03-0.018-0.06-0.026-0.09c-8.861-33.454-30.241-61.454-60.215-78.848C180.638,0.212,145.633-4.49,112.066,4.376   C42.76,22.681,1.231,93.817,19.49,162.949C19.49,162.952,19.492,162.953,19.492,162.955z M228.497,124.168   c-19.37,11.868-46.602,22.778-76.677,30.722s-59.151,11.902-81.846,11.148c-24.276-0.807-30.744-6.67-31.146-8.196   c-0.403-1.526,2.325-9.817,23.037-22.507c19.37-11.867,46.602-22.778,76.677-30.721c27.653-7.304,54.451-11.239,76.237-11.239   c1.907,0,3.78,0.03,5.608,0.091c24.275,0.807,30.743,6.67,31.146,8.196C251.936,103.188,249.208,111.479,228.497,124.168z    M117.173,23.713c28.411-7.504,58.037-3.527,83.418,11.202c17.097,9.922,30.878,23.928,40.344,40.67   c-5.587-1.104-12.152-1.851-19.884-2.108c-24.577-0.815-55.711,3.373-87.617,11.8c-31.905,8.427-61.033,20.148-82.018,33.004   c-6.582,4.032-11.912,7.915-16.221,11.627C35.207,81.306,67.889,36.73,117.173,23.713z"
            />
            <path d="M266.225,263.9c-23.086-8.525-53.938-14.351-86.874-16.405c-32.938-2.055-64.274-0.106-88.238,5.484   c-35.524,8.287-43.738,22.158-44.373,32.335c-4.451,71.365,50.133,133.054,121.677,137.516c2.774,0.173,5.535,0.259,8.291,0.259   c31.659,0,61.863-11.359,85.809-32.435c26.037-22.917,41.563-54.58,43.72-89.156C306.871,291.32,300.444,276.536,266.225,263.9z    M249.301,375.64c-22.026,19.388-50.299,29.055-79.641,27.229c-60.536-3.776-106.725-55.952-102.96-116.31   c0.099-1.575,5.301-8.585,28.955-14.103c16.285-3.799,36.449-5.764,58.342-5.764c7.847,0,15.917,0.252,24.109,0.763   c31.046,1.937,59.88,7.337,81.189,15.206c22.786,8.414,27.076,16.016,26.979,17.591   C284.452,329.486,271.321,356.259,249.301,375.64z"
            />
            <path d="M408.913,115.794c-3.707-4.092-10.031-4.404-14.125-0.697c-44.009,39.867-95.502,65.722-136.824,81.771   c22.344-19.098,36.291-36.741,37.329-38.068c2.882-3.685,2.823-8.875-0.142-12.495c-2.964-3.62-8.043-4.7-12.222-2.602   C155.788,207.507,22.267,216.923,20.933,217.01c-5.51,0.36-9.685,5.119-9.325,10.629c0.359,5.511,5.121,9.686,10.629,9.329   c1.409-0.092,35.083-2.369,85.322-12.786c35.081-7.274,83.501-19.739,134.655-40.274c-16.801,14.006-38.162,28.42-61.735,36.301   c-4.974,1.663-7.818,6.886-6.517,11.966c1.15,4.489,5.192,7.52,9.679,7.52c0.591,0,1.189-0.053,1.789-0.161   c1.307-0.237,32.495-5.979,75.636-22.328c39.838-15.097,97.705-42.495,147.149-87.287   C412.308,126.211,412.621,119.887,408.913,115.794z"
            />
            <path d="M92.578,126.695c-2.631,0-5.211,1.06-7.07,2.92c-1.86,1.87-2.92,4.44-2.92,7.08c0,2.63,1.06,5.21,2.92,7.07   c1.87,1.86,4.439,2.93,7.07,2.93c2.64,0,5.21-1.07,7.079-2.93c1.86-1.87,2.931-4.44,2.931-7.07c0-2.63-1.07-5.21-2.931-7.08   C97.788,127.755,95.217,126.695,92.578,126.695z"
            />
            <path d="M174.578,106.695c-2.631,0-5.211,1.06-7.07,2.93c-1.86,1.86-2.93,4.43-2.93,7.07c0,2.63,1.069,5.21,2.93,7.07   c1.859,1.86,4.439,2.93,7.07,2.93c2.64,0,5.21-1.07,7.079-2.93c1.86-1.87,2.931-4.44,2.931-7.07c0-2.63-1.07-5.21-2.931-7.07   C179.788,107.755,177.217,106.695,174.578,106.695z"
            />
            <path d="M152.588,128.695c-2.641,0-5.221,1.06-7.08,2.93c-1.86,1.86-2.93,4.43-2.93,7.07c0,2.63,1.069,5.21,2.93,7.07   c1.87,1.86,4.439,2.93,7.08,2.93c2.63,0,5.2-1.07,7.069-2.93c1.86-1.86,2.921-4.44,2.921-7.07c0-2.64-1.061-5.21-2.921-7.07   C157.797,129.755,155.217,128.695,152.588,128.695z"
            />
        </g>
        <g transform="matrix(0.19210532307624817 0 0 0.19210532307624817 217.5 217.5)" id="L1_55">
            <path d="M138.321,161.831h-17.437v-17.437c0-3.615-2.287-6.835-5.701-8.026c-5.319-1.855-10.904-2.796-16.6-2.796   c-5.696,0-11.281,0.941-16.6,2.796c-3.414,1.191-5.701,4.411-5.701,8.026v17.437H58.847c-3.615,0-6.834,2.287-8.025,5.7   c-1.856,5.318-2.797,10.904-2.797,16.601s0.941,11.283,2.797,16.601c1.191,3.413,4.411,5.699,8.025,5.699h17.437v17.437   c0,3.615,2.287,6.834,5.7,8.025c5.318,1.856,10.904,2.797,16.601,2.797c5.697,0,11.283-0.941,16.601-2.797   c3.413-1.191,5.7-4.41,5.7-8.025v-17.437h17.437c3.615,0,6.835-2.287,8.026-5.7c1.855-5.318,2.796-10.903,2.796-16.6   c0-5.696-0.941-11.281-2.796-16.6C145.156,164.118,141.937,161.831,138.321,161.831z M131.729,189.432h-19.344   c-4.694,0-8.5,3.806-8.5,8.5v19.344c-3.481,0.553-7.12,0.552-10.601,0v-19.344c0-4.694-3.806-8.5-8.5-8.5H65.44   c-0.276-1.741-0.415-3.511-0.415-5.3s0.139-3.56,0.415-5.301h19.344c4.694,0,8.5-3.806,8.5-8.5v-19.343   c3.482-0.553,7.12-0.553,10.601,0v19.343c0,4.694,3.806,8.5,8.5,8.5h19.343c0.276,1.741,0.415,3.511,0.415,5.301   C132.143,185.921,132.004,187.692,131.729,189.432z"
            />
            <path d="M254.329,166.478c0.009,0,0.019,0,0.028,0c7.996-0.009,14.459-6.501,14.44-14.497c-0.02-7.987-6.501-14.449-14.497-14.439   c-7.987,0.019-14.459,6.511-14.439,14.497C239.879,160.025,246.351,166.478,254.329,166.478z"
            />
            <path d="M413.655,176.853c-15.05-16.238-39.613-18.106-57.137-4.34c-4.789,3.762-10.376,6.982-16.534,9.625   c-6.765-39.084-24.521-74.946-51.786-104.346c-15.049-16.24-39.611-18.11-57.141-4.344c-14.5,11.397-36.2,17.934-59.535,17.934   c-23.341,0-45.044-6.537-59.545-17.935C94.463,59.683,69.9,61.551,54.838,77.791C19.475,115.946,0,165.618,0,217.657   c0,19.499,2.732,38.81,8.122,57.398c3.94,13.584,14.402,24.161,27.984,28.293c4.044,1.23,8.175,1.833,12.271,1.833   c9.678,0,19.154-3.365,26.782-9.76c16.623-13.948,35.986-24.059,56.702-29.731c-4.216,16.521-6.402,33.645-6.402,51.037   c0,19.509,2.731,38.819,8.117,57.393c3.94,13.586,14.402,24.164,27.988,28.295c4.042,1.229,8.17,1.831,12.264,1.831   c9.679,0,19.157-3.367,26.782-9.764c26.931-22.595,61.155-35.038,96.366-35.038s69.435,12.443,96.365,35.038   c10.851,9.104,25.448,12.069,39.046,7.934c13.586-4.132,24.048-14.709,27.988-28.295c5.386-18.573,8.117-37.883,8.117-57.393   C468.493,264.68,449.018,215.006,413.655,176.853z M62.306,280.097c-5.739,4.811-13.167,6.312-20.378,4.117   c-7.197-2.189-12.518-7.559-14.598-14.729C22.466,252.708,20,235.27,20,217.657c0-46.981,17.582-91.825,49.505-126.269   c7.915-8.536,20.861-9.489,30.114-2.217c17.957,14.115,44.165,22.21,71.904,22.21c27.732,0,53.937-8.095,71.89-22.207   c9.265-7.274,22.208-6.321,30.118,2.214c25.198,27.172,41.391,60.45,47.16,96.697c-6.77,1.379-13.891,2.167-21.197,2.315   c0.952-1.937,1.498-4.11,1.49-6.416c-0.02-7.986-6.521-14.449-14.517-14.42c-7.986,0.019-14.439,6.52-14.419,14.516   c0.005,1.344,0.207,2.639,0.554,3.873c-13.69-2.876-25.901-8.161-35.168-15.44c-17.522-13.765-42.085-11.899-57.137,4.34   c-18.159,19.591-32.116,42.226-41.41,66.654C110.767,248.981,84.397,261.56,62.306,280.097z M441.167,368.549   c-2.08,7.173-7.4,12.542-14.599,14.731c-7.209,2.193-14.636,0.692-20.371-4.121c-30.527-25.611-69.316-39.716-109.221-39.716   s-78.693,14.105-109.22,39.716c-5.735,4.812-13.158,6.313-20.373,4.121c-7.197-2.189-12.519-7.558-14.598-14.731   c-4.861-16.763-7.326-34.199-7.326-51.823c0-46.989,17.582-91.835,49.506-126.277c4.349-4.692,10.22-7.09,16.164-7.09   c4.866,0,9.782,1.608,13.949,4.882c17.962,14.11,44.168,22.203,71.897,22.203s53.936-8.093,71.897-22.203   c9.258-7.273,22.203-6.326,30.113,2.208c31.924,34.443,49.506,79.289,49.506,126.277   C448.493,334.351,446.028,351.786,441.167,368.549z"
            />
            <path d="M263.776,260.896h-17.437V243.46c0-3.615-2.287-6.835-5.7-8.026c-5.318-1.855-10.903-2.796-16.6-2.796   c-5.696,0-11.281,0.941-16.6,2.796c-3.414,1.191-5.701,4.411-5.701,8.026v17.437h-17.436c-3.615,0-6.834,2.287-8.025,5.7   c-1.856,5.318-2.797,10.904-2.797,16.601s0.941,11.283,2.797,16.601c1.191,3.413,4.41,5.7,8.025,5.7h17.436v17.436   c0,3.615,2.287,6.834,5.7,8.025c5.319,1.856,10.905,2.797,16.601,2.797c5.697,0,11.283-0.941,16.601-2.797   c3.413-1.191,5.699-4.411,5.699-8.025v-17.436h17.437c3.614,0,6.834-2.286,8.025-5.699c1.855-5.317,2.797-10.903,2.797-16.602   s-0.941-11.285-2.797-16.602C270.61,263.182,267.39,260.896,263.776,260.896z M257.183,288.498h-19.344c-4.694,0-8.5,3.806-8.5,8.5   v19.343c-3.481,0.553-7.12,0.552-10.601,0v-19.343c0-4.694-3.806-8.5-8.5-8.5h-19.343c-0.276-1.741-0.415-3.511-0.415-5.301   s0.139-3.56,0.415-5.301h19.343c4.694,0,8.5-3.806,8.5-8.5v-19.343c3.482-0.553,7.12-0.552,10.601,0v19.344   c0,4.694,3.806,8.5,8.5,8.5h19.344c0.276,1.741,0.415,3.511,0.415,5.301S257.459,286.757,257.183,288.498z"
            />
            <path d="M411.973,297.569c0.01,0,0.029,0,0.039,0c7.996-0.029,14.449-6.521,14.43-14.517c-0.029-7.986-6.52-14.449-14.516-14.42   c-7.987,0.019-14.449,6.52-14.42,14.507C397.524,291.116,403.996,297.569,411.973,297.569z"
            />
            <path d="M347.715,268.758c-7.987,0.01-14.459,6.491-14.448,14.487c0.01,7.986,6.491,14.459,14.487,14.449   c7.987-0.01,14.459-6.491,14.449-14.478C362.192,275.221,355.711,268.749,347.715,268.758z"
            />
            <path d="M379.931,300.849c-0.087,0-0.164,0-0.251,0c-7.909,0.096-14.295,6.53-14.295,14.468c0,7.986,6.481,14.468,14.468,14.468   c0.019,0,0.039,0,0.048,0c0.029,0,0.058,0,0.087,0c0.02,0,0.039,0,0.058,0c7.986-0.029,14.439-6.54,14.41-14.526   C394.418,307.263,387.917,300.81,379.931,300.849z"
            />
            <path d="M379.786,265.546c0.009,0,0.02,0,0.029,0c7.996-0.019,14.459-6.51,14.439-14.497c-0.019-7.996-6.511-14.459-14.497-14.439   c-7.995,0.019-14.458,6.511-14.439,14.497C365.327,259.084,371.81,265.546,379.786,265.546z"
            />
        </g>
        <g transform="matrix(0.1634482890367508 0 0 0.1634482890367508 315 140)" id="L1_56">
            <path d="M295.135,147.632V117h12.414c5.523,0,10-4.477,10-10V72c0-5.523-4.477-10-10-10h-34.342l6.581-50.713   c0.37-2.853-0.506-5.727-2.405-7.888C275.485,1.239,272.747,0,269.871,0H157.779c-2.876,0-5.614,1.239-7.512,3.399   c-1.899,2.161-2.775,5.035-2.405,7.888L154.443,62h-33.728c-5.523,0-10,4.477-10,10v35c0,5.523,4.477,10,10,10h12.42v30.631   c-43.94,27.728-71,76.487-71,128.639c0,83.813,68.187,152,152,152s152-68.187,152-152   C366.135,224.125,339.074,175.366,295.135,147.632z M169.16,20h89.329l-5.451,42h-78.428L169.16,20z M130.715,82h166.833v15   H130.715V82z M214.135,408.27c-72.785,0-132-59.215-132-132c0-46.984,25.292-90.797,66.006-114.343   c3.09-1.788,4.994-5.087,4.994-8.657V117h122v36.27c0,3.57,1.903,6.869,4.993,8.656c40.715,23.552,66.007,67.366,66.007,114.344   C346.135,349.055,286.92,408.27,214.135,408.27z"
            />
            <path d="M272.614,174.907c-7.699-4.453-12.481-12.745-12.481-21.64V134c0-5.523-4.477-10-10-10h-72c-5.523,0-10,4.477-10,10v19.268   c0,8.895-4.783,17.187-12.481,21.64c-36.096,20.881-58.519,59.719-58.519,101.358c0,64.514,52.486,117,117,117s117-52.486,117-117   C331.132,234.626,308.709,195.789,272.614,174.907z M165.665,192.22c13.858-8.017,22.467-22.942,22.467-38.952V144h52v9.268   c0,16.01,8.609,30.936,22.467,38.952c21.354,12.354,36.932,32.284,44.112,55.226H121.553   C128.733,224.504,144.311,204.573,165.665,192.22z M214.132,373.266c-53.486,0-97-43.514-97-97c0-2.961,0.147-5.902,0.416-8.821   h193.168c0.269,2.918,0.416,5.86,0.416,8.821C311.132,329.751,267.618,373.266,214.132,373.266z"
            />
            <path d="M179.825,281.2c-17.645,0-32,14.355-32,32s14.355,32,32,32s32-14.355,32-32S197.47,281.2,179.825,281.2z M179.825,325.2   c-6.617,0-12-5.383-12-12s5.383-12,12-12s12,5.383,12,12S186.442,325.2,179.825,325.2z"
            />
            <path d="M251.825,296c-14.336,0-26,11.664-26,26s11.664,26,26,26s26-11.664,26-26S266.161,296,251.825,296z M251.825,328   c-3.309,0-6-2.691-6-6s2.691-6,6-6s6,2.691,6,6S255.134,328,251.825,328z"
            />
        </g>
        <g transform="matrix(0.08622938394546509 0 0 0.08622938394546509 242.5 67.5)" id="L1_57">
            <path d="M418.67,256.948V81.985c0-5.523-4.478-10-10-10H10c-5.522,0-10,4.477-10,10v249c0,5.523,4.478,10,10,10h161.531   c8.225,29.33,35.183,50.908,67.105,50.908c21.228,0,41.168-9.654,54.353-26.073h46.839c13.186,16.418,33.126,26.073,54.353,26.073   c38.433,0,69.699-31.267,69.699-69.699C463.879,292.378,445.054,266.885,418.67,256.948z M20,91.985h378.67v160.67   c-1.486-0.095-2.98-0.16-4.49-0.16H268.301l-36.73-36.73l52.729-52.729c1.875-1.875,2.929-4.419,2.929-7.072   s-1.054-5.196-2.93-7.072c-36.871-36.86-96.867-36.862-133.742,0.002c-36.861,36.872-36.861,96.868,0.001,133.741   c6.65,6.65,14.127,12.181,22.3,16.543c-2.403,6.848-3.761,14.178-3.892,21.806H20V91.985z M182.133,281.458   c-6.381-3.426-12.226-7.758-17.43-12.963c-29.067-29.075-29.067-76.384-0.002-105.458c26.675-26.669,68.701-28.871,97.914-6.599   l-52.256,52.255c-3.905,3.905-3.905,10.237,0,14.142l29.658,29.659h-1.381C215.403,252.495,194.804,263.931,182.133,281.458z    M394.18,371.893c-16.43,0-31.783-8.117-41.069-21.713c-1.863-2.728-4.954-4.36-8.258-4.36h-56.89c-3.304,0-6.395,1.632-8.258,4.36   c-9.286,13.596-24.639,21.713-41.069,21.713c-27.404,0-49.699-22.295-49.699-49.699s22.295-49.699,49.699-49.699H394.18   c27.404,0,49.699,22.295,49.699,49.699S421.584,371.893,394.18,371.893z"
            />
            <path d="M260.464,312.194H249.2v-11.263c0-5.523-4.478-10-10-10s-10,4.477-10,10v11.263h-11.263c-5.522,0-10,4.477-10,10   s4.478,10,10,10H229.2v11.263c0,5.523,4.478,10,10,10s10-4.477,10-10v-11.263h11.264c5.522,0,10-4.477,10-10   S265.986,312.194,260.464,312.194z"
            />
            <path d="M395.132,333.458c-2.63,0-5.21,1.07-7.069,2.93c-1.86,1.86-2.931,4.44-2.931,7.07c0,2.63,1.07,5.21,2.931,7.07   c1.859,1.86,4.439,2.93,7.069,2.93s5.21-1.07,7.07-2.93c1.86-1.86,2.93-4.44,2.93-7.07c0-2.63-1.069-5.21-2.93-7.07   S397.762,333.458,395.132,333.458z"
            />
            <path d="M373.872,312.198c-2.64,0-5.21,1.06-7.07,2.93c-1.869,1.86-2.93,4.43-2.93,7.07c0,2.63,1.061,5.21,2.93,7.07   c1.86,1.86,4.431,2.92,7.07,2.92c2.63,0,5.21-1.06,7.07-2.92c1.859-1.86,2.93-4.44,2.93-7.07c0-2.64-1.07-5.21-2.93-7.07   C379.072,313.258,376.502,312.198,373.872,312.198z"
            />
            <path d="M395.132,290.928c-2.63,0-5.21,1.07-7.069,2.93c-1.86,1.87-2.931,4.44-2.931,7.07c0,2.63,1.07,5.21,2.931,7.07   c1.859,1.86,4.439,2.93,7.069,2.93s5.21-1.07,7.07-2.93c1.86-1.86,2.93-4.44,2.93-7.07c0-2.63-1.069-5.21-2.93-7.07   C400.342,291.998,397.762,290.928,395.132,290.928z"
            />
            <path d="M416.393,312.198c-2.631,0-5.21,1.06-7.07,2.92c-1.86,1.87-2.93,4.44-2.93,7.08c0,2.63,1.069,5.21,2.93,7.07   c1.86,1.86,4.439,2.93,7.07,2.93c2.64,0,5.21-1.07,7.069-2.93c1.86-1.86,2.931-4.44,2.931-7.07c0-2.64-1.07-5.21-2.931-7.08   C421.603,313.258,419.022,312.198,416.393,312.198z"
            />
        </g>
    </defs>
    <g fi:class="KUsePattern">
        <pattern id="pattern_L1_48" width="350" height="350" patternUnits="userSpaceOnUse">
            <use xlink:href="#L1_48" x="-350" y="-350" />
            <use xlink:href="#L1_48" x="0" y="-350" />
            <use xlink:href="#L1_48" x="350" y="-350" />
            <use xlink:href="#L1_48" x="-350" y="0" />
            <use xlink:href="#L1_48" x="0" y="0" />
            <use xlink:href="#L1_48" x="350" y="0" />
            <use xlink:href="#L1_48" x="-350" y="350" />
            <use xlink:href="#L1_48" x="0" y="350" />
            <use xlink:href="#L1_48" x="350" y="350" />
        </pattern>
        <rect x="0" y="0" width="100%" height="100%" fill="url(#pattern_L1_48)" />
    </g>
    <g fi:class="KUsePattern">
        <pattern id="pattern_L1_49" width="350" height="350" patternUnits="userSpaceOnUse">
            <use xlink:href="#L1_49" x="-350" y="-350" />
            <use xlink:href="#L1_49" x="0" y="-350" />
            <use xlink:href="#L1_49" x="350" y="-350" />
            <use xlink:href="#L1_49" x="-350" y="0" />
            <use xlink:href="#L1_49" x="0" y="0" />
            <use xlink:href="#L1_49" x="350" y="0" />
            <use xlink:href="#L1_49" x="-350" y="350" />
            <use xlink:href="#L1_49" x="0" y="350" />
            <use xlink:href="#L1_49" x="350" y="350" />
        </pattern>
        <rect x="0" y="0" width="100%" height="100%" fill="url(#pattern_L1_49)" />
    </g>
    <g fi:class="KUsePattern">
        <pattern id="pattern_L1_50" width="350" height="350" patternUnits="userSpaceOnUse">
            <use xlink:href="#L1_50" x="-350" y="-350" />
            <use xlink:href="#L1_50" x="0" y="-350" />
            <use xlink:href="#L1_50" x="350" y="-350" />
            <use xlink:href="#L1_50" x="-350" y="0" />
            <use xlink:href="#L1_50" x="0" y="0" />
            <use xlink:href="#L1_50" x="350" y="0" />
            <use xlink:href="#L1_50" x="-350" y="350" />
            <use xlink:href="#L1_50" x="0" y="350" />
            <use xlink:href="#L1_50" x="350" y="350" />
        </pattern>
        <rect x="0" y="0" width="100%" height="100%" fill="url(#pattern_L1_50)" />
    </g>
    <g fi:class="KUsePattern">
        <pattern id="pattern_L1_51" width="350" height="350" patternUnits="userSpaceOnUse">
            <use xlink:href="#L1_51" x="-350" y="-350" />
            <use xlink:href="#L1_51" x="0" y="-350" />
            <use xlink:href="#L1_51" x="350" y="-350" />
            <use xlink:href="#L1_51" x="-350" y="0" />
            <use xlink:href="#L1_51" x="0" y="0" />
            <use xlink:href="#L1_51" x="350" y="0" />
            <use xlink:href="#L1_51" x="-350" y="350" />
            <use xlink:href="#L1_51" x="0" y="350" />
            <use xlink:href="#L1_51" x="350" y="350" />
        </pattern>
        <rect x="0" y="0" width="100%" height="100%" fill="url(#pattern_L1_51)" />
    </g>
    <g fi:class="KUsePattern">
        <pattern id="pattern_L1_52" width="350" height="350" patternUnits="userSpaceOnUse">
            <use xlink:href="#L1_52" x="-350" y="-350" />
            <use xlink:href="#L1_52" x="0" y="-350" />
            <use xlink:href="#L1_52" x="350" y="-350" />
            <use xlink:href="#L1_52" x="-350" y="0" />
            <use xlink:href="#L1_52" x="0" y="0" />
            <use xlink:href="#L1_52" x="350" y="0" />
            <use xlink:href="#L1_52" x="-350" y="350" />
            <use xlink:href="#L1_52" x="0" y="350" />
            <use xlink:href="#L1_52" x="350" y="350" />
        </pattern>
        <rect x="0" y="0" width="100%" height="100%" fill="url(#pattern_L1_52)" />
    </g>
    <g fi:class="KUsePattern">
        <pattern id="pattern_L1_53" width="350" height="350" patternUnits="userSpaceOnUse">
            <use xlink:href="#L1_53" x="-350" y="-350" />
            <use xlink:href="#L1_53" x="0" y="-350" />
            <use xlink:href="#L1_53" x="350" y="-350" />
            <use xlink:href="#L1_53" x="-350" y="0" />
            <use xlink:href="#L1_53" x="0" y="0" />
            <use xlink:href="#L1_53" x="350" y="0" />
            <use xlink:href="#L1_53" x="-350" y="350" />
            <use xlink:href="#L1_53" x="0" y="350" />
            <use xlink:href="#L1_53" x="350" y="350" />
        </pattern>
        <rect x="0" y="0" width="100%" height="100%" fill="url(#pattern_L1_53)" />
    </g>
    <g fi:class="KUsePattern">
        <pattern id="pattern_L1_54" width="350" height="350" patternUnits="userSpaceOnUse">
            <use xlink:href="#L1_54" x="-350" y="-350" />
            <use xlink:href="#L1_54" x="0" y="-350" />
            <use xlink:href="#L1_54" x="350" y="-350" />
            <use xlink:href="#L1_54" x="-350" y="0" />
            <use xlink:href="#L1_54" x="0" y="0" />
            <use xlink:href="#L1_54" x="350" y="0" />
            <use xlink:href="#L1_54" x="-350" y="350" />
            <use xlink:href="#L1_54" x="0" y="350" />
            <use xlink:href="#L1_54" x="350" y="350" />
        </pattern>
        <rect x="0" y="0" width="100%" height="100%" fill="url(#pattern_L1_54)" />
    </g>
    <g fi:class="KUsePattern">
        <pattern id="pattern_L1_55" width="350" height="350" patternUnits="userSpaceOnUse">
            <use xlink:href="#L1_55" x="-350" y="-350" />
            <use xlink:href="#L1_55" x="0" y="-350" />
            <use xlink:href="#L1_55" x="350" y="-350" />
            <use xlink:href="#L1_55" x="-350" y="0" />
            <use xlink:href="#L1_55" x="0" y="0" />
            <use xlink:href="#L1_55" x="350" y="0" />
            <use xlink:href="#L1_55" x="-350" y="350" />
            <use xlink:href="#L1_55" x="0" y="350" />
            <use xlink:href="#L1_55" x="350" y="350" />
        </pattern>
        <rect x="0" y="0" width="100%" height="100%" fill="url(#pattern_L1_55)" />
    </g>
    <g fi:class="KUsePattern">
        <pattern id="pattern_L1_56" width="350" height="350" patternUnits="userSpaceOnUse">
            <use xlink:href="#L1_56" x="-350" y="-350" />
            <use xlink:href="#L1_56" x="0" y="-350" />
            <use xlink:href="#L1_56" x="350" y="-350" />
            <use xlink:href="#L1_56" x="-350" y="0" />
            <use xlink:href="#L1_56" x="0" y="0" />
            <use xlink:href="#L1_56" x="350" y="0" />
            <use xlink:href="#L1_56" x="-350" y="350" />
            <use xlink:href="#L1_56" x="0" y="350" />
            <use xlink:href="#L1_56" x="350" y="350" />
        </pattern>
        <rect x="0" y="0" width="100%" height="100%" fill="url(#pattern_L1_56)" />
    </g>
    <g fi:class="KUsePattern">
        <pattern id="pattern_L1_57" width="350" height="350" patternUnits="userSpaceOnUse">
            <use xlink:href="#L1_57" x="-350" y="-350" />
            <use xlink:href="#L1_57" x="0" y="-350" />
            <use xlink:href="#L1_57" x="350" y="-350" />
            <use xlink:href="#L1_57" x="-350" y="0" />
            <use xlink:href="#L1_57" x="0" y="0" />
            <use xlink:href="#L1_57" x="350" y="0" />
            <use xlink:href="#L1_57" x="-350" y="350" />
            <use xlink:href="#L1_57" x="0" y="350" />
            <use xlink:href="#L1_57" x="350" y="350" />
        </pattern>
        <rect x="0" y="0" width="100%" height="100%" fill="url(#pattern_L1_57)" />
    </g>
</svg>
